# xmcd
#
# Track frame offsets: 
#        150
#        15935
#        36692
#        50390
#        66150
#        83540
#        105922
#        125672
#        142655
#        160670
#        181392
#        191160
#        207202
#        234810
#        255910
#        271235
#        287815
#
# Disc length: 4424 seconds
#
# Revision: 1
# Processed by: cddbd v1.5.2PL0 Copyright (c) Steve Scherf et al.
# Submitted via: ExactAudioCopy v0.95b4
#
DISCID=db114611
DTITLE=Tom Waits - Tales From The Underground 1
DYEAR=1996
DGENRE=
TTITLE0=Blue Skies
TTITLE1=Jersey Girl
TTITLE2=Whistlin' Past the Graveyard
TTITLE3=Mr. Henry
TTITLE4=Downtown Train
TTITLE5=I'm Not Your Fool Anymore
TTITLE6=Adios Lounge
TTITLE7=Sea of Love
TTITLE8=Silent Night
TTITLE9=Little Man
TTITLE10=What Keeps Mankind Alive
TTITLE11=The Dwarf's Machine Song
TTITLE12=The Piano Has Been Drinking
TTITLE13=It's Alright with Me
TTITLE14=Tommy the Cat
TTITLE15=Filipino Box Spring Hog
TTITLE16=16 Shells from a Thirty-Ought-Six, Rain Dogs (live) (Nov. 16t
TTITLE16=h 1985 Paris)
EXTD=
EXTT0=
EXTT1=
EXTT2=
EXTT3=
EXTT4=
EXTT5=
EXTT6=
EXTT7=
EXTT8=
EXTT9=
EXTT10=
EXTT11=
EXTT12=
EXTT13=
EXTT14=
EXTT15=
EXTT16=
PLAYORDER=
